# This file uses centimeters as units for non-parametric coordinates.

mtllib GlassLP.mtl
g default
v -0.608356 2.085029 0.000000
v 0.608356 2.085029 0.000000
v -0.608356 4.355072 0.000000
v 0.608356 4.355072 0.000000
v -0.608356 2.085029 0.078354
v 0.608356 2.085029 0.078354
v 0.608356 4.355072 0.078354
v -0.608356 4.355072 0.078354
vt 0.000000 0.000000
vt 0.376387 0.000050
vt 0.000106 0.665173
vt 0.376510 0.665206
vt 0.624471 1.000000
vt 0.624534 0.665292
vt 0.000064 0.665174
vt 0.000000 0.999881
vt 0.016793 0.013170
vt 0.360606 0.014433
vt 0.359708 0.652054
vt 0.015884 0.650787
vn 0.000000 -0.000000 1.000000
vn 0.000000 -0.000000 1.000000
vn 0.000000 -0.000000 1.000000
vn 0.000000 -0.000000 1.000000
vn 0.000000 0.000000 -1.000000
vn 0.000000 0.000000 -1.000000
vn 0.000000 0.000000 -1.000000
vn 0.000000 0.000000 -1.000000
vn 0.000000 -1.000000 -0.000000
vn 0.000000 -1.000000 -0.000000
vn 0.000000 -1.000000 -0.000000
vn 0.000000 -1.000000 -0.000000
vn 1.000000 -0.000000 0.000000
vn 1.000000 -0.000000 0.000000
vn 1.000000 -0.000000 0.000000
vn 1.000000 -0.000000 0.000000
vn 0.000000 1.000000 0.000000
vn 0.000000 1.000000 0.000000
vn 0.000000 1.000000 0.000000
vn 0.000000 1.000000 0.000000
vn -1.000000 0.000000 0.000000
vn -1.000000 0.000000 0.000000
vn -1.000000 0.000000 0.000000
vn -1.000000 0.000000 0.000000
s off
g pPlane3
usemtl initialShadingGroup
f 5/9/1 6/10/2 7/11/3 8/12/4
f 1/5/5 3/8/6 4/7/7 2/6/8
f 1/1/9 2/2/10 6/10/11 5/9/12
f 2/2/13 4/4/14 7/11/15 6/10/16
f 4/4/17 3/3/18 8/12/19 7/11/20
f 3/3/21 1/1/22 5/9/23 8/12/24
