# This file uses centimeters as units for non-parametric coordinates.

mtllib PaperThirdRoom.mtl
g default
v -0.151513 0.000000 -0.005561
v -0.113635 0.000000 -0.005561
v -0.075757 0.000000 -0.005561
v -0.037878 0.000000 -0.005561
v 0.000000 0.000000 -0.005561
v 0.037878 0.000000 -0.005561
v 0.075757 0.000000 -0.005561
v 0.113635 0.000000 -0.005561
v 0.151513 0.000000 -0.005561
v -0.151513 0.054102 0.000874
v -0.113635 0.054102 0.000874
v -0.075757 0.054102 0.000874
v -0.037878 0.054102 0.000874
v 0.000000 0.054102 0.000874
v 0.037878 0.054102 0.000874
v 0.075757 0.054102 0.000874
v 0.113635 0.054102 0.000874
v 0.151513 0.054102 0.000874
v -0.151513 0.108204 0.000874
v -0.113635 0.108204 0.000874
v -0.075757 0.108204 0.000874
v -0.037878 0.108204 0.000874
v 0.000000 0.108204 0.000874
v 0.037878 0.108204 0.000874
v 0.075757 0.108204 0.000874
v 0.113635 0.108204 0.000874
v 0.151513 0.108204 0.000874
v -0.151513 0.162307 -0.003737
v -0.113635 0.162307 -0.003737
v -0.075757 0.162307 -0.003737
v -0.037878 0.162307 -0.003737
v 0.000000 0.162307 -0.003737
v 0.037878 0.162307 -0.003737
v 0.075757 0.162307 -0.003737
v 0.113635 0.162307 -0.003737
v 0.151513 0.162307 -0.003737
v -0.151513 0.216409 0.000874
v -0.113635 0.216409 0.000874
v -0.075757 0.216409 0.000874
v -0.037878 0.216409 0.000874
v 0.000000 0.216409 0.000874
v 0.037878 0.216409 0.000874
v 0.075757 0.216409 0.000874
v 0.113635 0.216409 0.000874
v 0.151513 0.216409 0.000874
v -0.151513 0.270511 0.000874
v -0.113635 0.270511 0.000874
v -0.075757 0.270511 0.000874
v -0.037878 0.270511 0.000874
v 0.000000 0.270511 0.000874
v 0.037878 0.270511 0.000874
v 0.075757 0.270511 0.000874
v 0.113635 0.270511 0.000874
v 0.151513 0.270511 0.000874
v -0.151513 0.324613 -0.003862
v -0.113635 0.324613 -0.003862
v -0.075757 0.324613 -0.003862
v -0.037878 0.324613 -0.003862
v 0.000000 0.324613 -0.003862
v 0.037878 0.324613 -0.003862
v 0.075757 0.324613 -0.003862
v 0.113635 0.324613 -0.003862
v 0.151513 0.324613 -0.003862
v -0.151513 0.378715 0.000874
v -0.113635 0.378715 0.000874
v -0.075757 0.378715 0.000874
v -0.037878 0.378715 0.000874
v 0.000000 0.378715 0.000874
v 0.037878 0.378715 0.000874
v 0.075757 0.378715 0.000874
v 0.113635 0.378715 0.000874
v 0.151513 0.378715 0.000874
v -0.151513 0.432817 0.000874
v -0.113635 0.432817 0.000874
v -0.075757 0.432817 0.000874
v -0.037878 0.432817 0.000874
v 0.000000 0.432817 0.000874
v 0.037878 0.432817 0.000874
v 0.075757 0.432817 0.000874
v 0.113635 0.432817 0.000874
v 0.151513 0.432817 0.000874
v -0.151513 0.432817 -0.001040
v -0.113635 0.432817 -0.001040
v -0.075757 0.432817 -0.001040
v -0.037878 0.432817 -0.001040
v 0.000000 0.432817 -0.001040
v 0.037878 0.432817 -0.001040
v 0.075757 0.432817 -0.001040
v 0.113635 0.432817 -0.001040
v 0.151513 0.432817 -0.001040
v -0.151513 0.378715 -0.001040
v -0.113635 0.378715 -0.001040
v -0.075757 0.378715 -0.001040
v -0.037878 0.378715 -0.001040
v 0.000000 0.378715 -0.001040
v 0.037878 0.378715 -0.001040
v 0.075757 0.378715 -0.001040
v 0.113635 0.378715 -0.001040
v 0.151513 0.378715 -0.001040
v -0.151513 0.324613 -0.005777
v -0.113635 0.324613 -0.005777
v -0.075757 0.324613 -0.005777
v -0.037878 0.324613 -0.005777
v 0.000000 0.324613 -0.005777
v 0.037878 0.324613 -0.005777
v 0.075757 0.324613 -0.005777
v 0.113635 0.324613 -0.005777
v 0.151513 0.324613 -0.005777
v -0.151513 0.270511 -0.001040
v -0.113635 0.270511 -0.001040
v -0.075757 0.270511 -0.001040
v -0.037878 0.270511 -0.001040
v 0.000000 0.270511 -0.001040
v 0.037878 0.270511 -0.001040
v 0.075757 0.270511 -0.001040
v 0.113635 0.270511 -0.001040
v 0.151513 0.270511 -0.001040
v -0.151513 0.216409 -0.001040
v -0.113635 0.216409 -0.001040
v -0.075757 0.216409 -0.001040
v -0.037878 0.216409 -0.001040
v 0.000000 0.216409 -0.001040
v 0.037878 0.216409 -0.001040
v 0.075757 0.216409 -0.001040
v 0.113635 0.216409 -0.001040
v 0.151513 0.216409 -0.001040
v -0.151513 0.162307 -0.005651
v -0.113635 0.162307 -0.005651
v -0.075757 0.162307 -0.005651
v -0.037878 0.162307 -0.005651
v 0.000000 0.162307 -0.005651
v 0.037878 0.162307 -0.005651
v 0.075757 0.162307 -0.005651
v 0.113635 0.162307 -0.005651
v 0.151513 0.162307 -0.005651
v -0.151513 0.108204 -0.001040
v -0.113635 0.108204 -0.001040
v -0.075757 0.108204 -0.001040
v -0.037878 0.108204 -0.001040
v 0.000000 0.108204 -0.001040
v 0.037878 0.108204 -0.001040
v 0.075757 0.108204 -0.001040
v 0.113635 0.108204 -0.001040
v 0.151513 0.108204 -0.001040
v -0.151513 0.054102 -0.001040
v -0.113635 0.054102 -0.001040
v -0.075757 0.054102 -0.001040
v -0.037878 0.054102 -0.001040
v 0.000000 0.054102 -0.001040
v 0.037878 0.054102 -0.001040
v 0.075757 0.054102 -0.001040
v 0.113635 0.054102 -0.001040
v 0.151513 0.054102 -0.001040
v -0.151513 0.000000 -0.007476
v -0.113635 0.000000 -0.007476
v -0.075757 0.000000 -0.007476
v -0.037878 0.000000 -0.007476
v 0.000000 0.000000 -0.007476
v 0.037878 0.000000 -0.007476
v 0.075757 0.000000 -0.007476
v 0.113635 0.000000 -0.007476
v 0.151513 0.000000 -0.007476
v -0.150924 0.000000 -0.005561
v -0.150924 0.054102 0.000874
v -0.150924 0.108204 0.000874
v -0.150924 0.162307 -0.003737
v -0.150924 0.216409 0.000874
v -0.150924 0.270511 0.000874
v -0.150924 0.324613 -0.003862
v -0.150924 0.378715 0.000874
v -0.150924 0.432817 0.000874
v -0.150924 0.432817 -0.001040
v -0.150924 0.378715 -0.001040
v -0.150924 0.324613 -0.005777
v -0.150924 0.270511 -0.001040
v -0.150924 0.216409 -0.001040
v -0.150924 0.162307 -0.005651
v -0.150924 0.108204 -0.001040
v -0.150924 0.054102 -0.001040
v -0.150924 0.000000 -0.007476
v -0.151513 0.001095 -0.005431
v -0.151513 0.001095 -0.007346
v -0.150924 0.001095 -0.007346
v -0.113635 0.001095 -0.007346
v -0.075757 0.001095 -0.007346
v -0.037878 0.001095 -0.007346
v 0.000000 0.001095 -0.007346
v 0.037878 0.001095 -0.007346
v 0.075757 0.001095 -0.007346
v 0.113635 0.001095 -0.007346
v 0.151513 0.001095 -0.007346
v 0.151513 0.001095 -0.005431
v 0.113635 0.001095 -0.005431
v 0.075757 0.001095 -0.005431
v 0.037878 0.001095 -0.005431
v 0.000000 0.001095 -0.005431
v -0.037878 0.001095 -0.005431
v -0.075757 0.001095 -0.005431
v -0.113635 0.001095 -0.005431
v -0.150924 0.001095 -0.005431
v 0.150587 0.001095 -0.005431
v 0.150587 0.000000 -0.005561
v 0.150587 0.000000 -0.007476
v 0.150587 0.001095 -0.007346
v 0.150587 0.054102 -0.001040
v 0.150587 0.108204 -0.001040
v 0.150587 0.162307 -0.005651
v 0.150587 0.216409 -0.001040
v 0.150587 0.270511 -0.001040
v 0.150587 0.324613 -0.005777
v 0.150587 0.378715 -0.001040
v 0.150587 0.432817 -0.001040
v 0.150587 0.432817 0.000874
v 0.150587 0.378715 0.000874
v 0.150587 0.324613 -0.003862
v 0.150587 0.270511 0.000874
v 0.150587 0.216409 0.000874
v 0.150587 0.162307 -0.003737
v 0.150587 0.108204 0.000874
v 0.150587 0.054102 0.000874
v 0.150587 0.432250 0.000874
v 0.151513 0.432250 0.000874
v 0.151513 0.432250 -0.001040
v 0.150587 0.432250 -0.001040
v 0.113635 0.432250 -0.001040
v 0.075757 0.432250 -0.001040
v 0.037878 0.432250 -0.001040
v 0.000000 0.432250 -0.001040
v -0.037878 0.432250 -0.001040
v -0.075757 0.432250 -0.001040
v -0.113635 0.432250 -0.001040
v -0.150924 0.432250 -0.001040
v -0.151513 0.432250 -0.001040
v -0.151513 0.432250 0.000874
v -0.150924 0.432250 0.000874
v -0.113635 0.432250 0.000874
v -0.075757 0.432250 0.000874
v -0.037878 0.432250 0.000874
v 0.000000 0.432250 0.000874
v 0.037878 0.432250 0.000874
v 0.075757 0.432250 0.000874
v 0.113635 0.432250 0.000874
vt 0.002187 0.000860
vt 0.045798 0.000264
vt 0.089389 0.000070
vt 0.132937 0.000010
vt 0.176462 0.000000
vt 0.219983 0.000018
vt 0.263519 0.000076
vt 0.307076 0.000231
vt 0.350615 0.000637
vt 0.003088 0.062944
vt 0.046367 0.062729
vt 0.089709 0.062625
vt 0.133079 0.062567
vt 0.176468 0.062545
vt 0.219857 0.062553
vt 0.263227 0.062595
vt 0.306563 0.062695
vt 0.349884 0.062942
vt 0.002990 0.124563
vt 0.046370 0.124742
vt 0.089708 0.124751
vt 0.133086 0.124708
vt 0.176474 0.124688
vt 0.219862 0.124698
vt 0.263241 0.124728
vt 0.306607 0.124736
vt 0.349986 0.124557
vt 0.002307 0.186798
vt 0.045964 0.187026
vt 0.089538 0.186983
vt 0.133025 0.186982
vt 0.176478 0.186985
vt 0.219933 0.186993
vt 0.263424 0.187002
vt 0.306996 0.186981
vt 0.350656 0.186784
vt 0.002946 0.249324
vt 0.046250 0.249153
vt 0.089638 0.249219
vt 0.133046 0.249248
vt 0.176468 0.249253
vt 0.219893 0.249240
vt 0.263309 0.249206
vt 0.306695 0.249175
vt 0.350000 0.249360
vt 0.002886 0.311101
vt 0.046244 0.311246
vt 0.089603 0.311314
vt 0.133022 0.311317
vt 0.176459 0.311312
vt 0.219894 0.311307
vt 0.263309 0.311298
vt 0.306684 0.311271
vt 0.350036 0.311136
vt 0.002193 0.373403
vt 0.045853 0.373606
vt 0.089442 0.373558
vt 0.132962 0.373560
vt 0.176455 0.373565
vt 0.219948 0.373571
vt 0.263466 0.373578
vt 0.307045 0.373567
vt 0.350706 0.373400
vt 0.002829 0.435978
vt 0.046160 0.435792
vt 0.089565 0.435808
vt 0.133001 0.435813
vt 0.176450 0.435811
vt 0.219899 0.435802
vt 0.263337 0.435785
vt 0.306738 0.435787
vt 0.350041 0.436010
vt 0.002722 0.497905
vt 0.046155 0.497884
vt 0.089585 0.497869
vt 0.133018 0.497861
vt 0.176452 0.497856
vt 0.219885 0.497855
vt 0.263311 0.497861
vt 0.306733 0.497877
vt 0.350186 0.497853
vt 0.002722 0.500100
vt 0.046155 0.500080
vt 0.089586 0.500065
vt 0.133018 0.500057
vt 0.176452 0.500052
vt 0.219884 0.500051
vt 0.263311 0.500057
vt 0.306735 0.500071
vt 0.350186 0.500050
vt 0.002719 0.562131
vt 0.046156 0.562125
vt 0.089592 0.562115
vt 0.133025 0.562108
vt 0.176459 0.562102
vt 0.219891 0.562100
vt 0.263325 0.562099
vt 0.306762 0.562096
vt 0.350202 0.562079
vt 0.002725 0.624413
vt 0.046162 0.624407
vt 0.089599 0.624399
vt 0.133034 0.624392
vt 0.176470 0.624386
vt 0.219905 0.624381
vt 0.263342 0.624375
vt 0.306780 0.624367
vt 0.350218 0.624354
vt 0.002734 0.686696
vt 0.046172 0.686689
vt 0.089609 0.686682
vt 0.133046 0.686674
vt 0.176482 0.686667
vt 0.219919 0.686660
vt 0.263357 0.686652
vt 0.306795 0.686643
vt 0.350233 0.686631
vt 0.002746 0.748742
vt 0.046183 0.748734
vt 0.089621 0.748726
vt 0.133058 0.748718
vt 0.176496 0.748710
vt 0.219933 0.748702
vt 0.263371 0.748693
vt 0.306809 0.748683
vt 0.350247 0.748672
vt 0.002759 0.811011
vt 0.046196 0.811003
vt 0.089634 0.810994
vt 0.133072 0.810986
vt 0.176509 0.810977
vt 0.219947 0.810969
vt 0.263385 0.810959
vt 0.306823 0.810949
vt 0.350261 0.810939
vt 0.002772 0.873280
vt 0.046210 0.873271
vt 0.089647 0.873263
vt 0.133085 0.873254
vt 0.176523 0.873245
vt 0.219961 0.873236
vt 0.263399 0.873226
vt 0.306837 0.873216
vt 0.350275 0.873206
vt 0.002786 0.935324
vt 0.046223 0.935315
vt 0.089661 0.935306
vt 0.133099 0.935297
vt 0.176537 0.935287
vt 0.219975 0.935278
vt 0.263413 0.935268
vt 0.306851 0.935258
vt 0.350289 0.935248
vt 0.002799 0.997804
vt 0.046237 0.997795
vt 0.089675 0.997786
vt 0.133113 0.997777
vt 0.176551 0.997767
vt 0.219989 0.997758
vt 0.263427 0.997748
vt 0.306865 0.997738
vt 0.350303 0.997728
vt 0.002800 1.000000
vt 0.046238 0.999991
vt 0.089675 0.999982
vt 0.133114 0.999972
vt 0.176552 0.999963
vt 0.219990 0.999954
vt 0.263428 0.999944
vt 0.306866 0.999934
vt 0.350304 0.999924
vt 0.352802 0.000420
vt 0.352072 0.062828
vt 0.352175 0.124616
vt 0.352846 0.186780
vt 0.352191 0.249290
vt 0.352225 0.311202
vt 0.352895 0.373397
vt 0.352231 0.435935
vt 0.352384 0.497844
vt 0.000000 0.000647
vt 0.000901 0.062832
vt 0.000799 0.124622
vt 0.000117 0.186794
vt 0.000756 0.249253
vt 0.000696 0.311166
vt 0.000004 0.373400
vt 0.000640 0.435903
vt 0.000524 0.497896
vt 0.002865 0.000846
vt 0.003475 1.000000
vt 0.003763 0.062938
vt 0.003664 0.124574
vt 0.002984 0.186800
vt 0.003620 0.249317
vt 0.003561 0.311110
vt 0.002870 0.373404
vt 0.003503 0.435972
vt 0.003399 0.497906
vt 0.003397 0.500100
vt 0.003394 0.562131
vt 0.003400 0.624413
vt 0.003410 0.686696
vt 0.003421 0.748741
vt 0.003434 0.811011
vt 0.003447 0.873280
vt 0.003461 0.935324
vt 0.003475 0.997804
vt 0.002211 0.002124
vt 0.000027 0.001912
vt 0.002799 0.996539
vt 0.003474 0.996539
vt 0.046237 0.996530
vt 0.089675 0.996521
vt 0.133113 0.996512
vt 0.176551 0.996503
vt 0.219989 0.996493
vt 0.263427 0.996483
vt 0.306865 0.996473
vt 0.350303 0.996463
vt 0.352778 0.001685
vt 0.350594 0.001902
vt 0.307065 0.001496
vt 0.263513 0.001341
vt 0.219981 0.001283
vt 0.176462 0.001265
vt 0.132940 0.001275
vt 0.089397 0.001335
vt 0.045813 0.001529
vt 0.002887 0.002111
vt 0.349530 0.001883
vt 0.349548 0.000618
vt 0.349241 0.999924
vt 0.349241 0.997728
vt 0.349240 0.996463
vt 0.349226 0.935248
vt 0.349212 0.873206
vt 0.349198 0.810939
vt 0.349184 0.748672
vt 0.349170 0.686631
vt 0.349156 0.624354
vt 0.349140 0.562080
vt 0.349124 0.500051
vt 0.349123 0.497856
vt 0.348981 0.436001
vt 0.349641 0.373401
vt 0.348975 0.311150
vt 0.348940 0.249349
vt 0.349591 0.186786
vt 0.348925 0.124573
vt 0.348823 0.062934
vt 0.349122 0.497206
vt 0.350185 0.497202
vt 0.350186 0.500701
vt 0.352381 0.497193
vt 0.349124 0.500702
vt 0.306735 0.500722
vt 0.263311 0.500708
vt 0.219884 0.500702
vt 0.176452 0.500703
vt 0.133018 0.500708
vt 0.089586 0.500716
vt 0.046155 0.500731
vt 0.003397 0.500750
vt 0.000527 0.497245
vt 0.002722 0.500750
vt 0.002724 0.497254
vt 0.003399 0.497256
vt 0.046155 0.497233
vt 0.089585 0.497218
vt 0.133017 0.497210
vt 0.176452 0.497205
vt 0.219885 0.497204
vt 0.263311 0.497210
vt 0.306732 0.497226
vn 0.000000 -0.118123 0.992999
vn 0.000000 -0.118122 0.992999
vn 0.000000 -0.118122 0.992999
vn 0.000000 -0.118122 0.992999
vn 0.000000 -0.118122 0.992999
vn 0.000000 -0.118122 0.992999
vn 0.000000 -0.118122 0.992999
vn 0.000000 -0.118122 0.992999
vn 0.000000 -0.118122 0.992999
vn 0.000000 -0.118122 0.992999
vn 0.000000 -0.118122 0.992999
vn 0.000000 -0.118122 0.992999
vn 0.000000 -0.118122 0.992999
vn 0.000000 -0.118122 0.992999
vn 0.000000 -0.118122 0.992999
vn 0.000000 -0.118122 0.992999
vn 0.000000 -0.118122 0.992999
vn 0.000000 -0.118122 0.992999
vn 0.000000 -0.118122 0.992999
vn 0.000000 -0.118122 0.992999
vn 0.000000 -0.118121 0.992999
vn 0.000000 -0.118122 0.992999
vn 0.000000 -0.058768 0.998272
vn 0.000000 -0.058767 0.998272
vn 0.000000 0.042577 0.999093
vn 0.000000 0.042577 0.999093
vn 0.000000 -0.058767 0.998272
vn 0.000000 -0.058767 0.998272
vn 0.000000 0.042577 0.999093
vn 0.000000 0.042577 0.999093
vn 0.000000 -0.058767 0.998272
vn 0.000000 0.042577 0.999093
vn 0.000000 -0.058767 0.998272
vn 0.000000 0.042577 0.999093
vn 0.000000 -0.058767 0.998272
vn 0.000000 0.042577 0.999093
vn 0.000000 -0.058767 0.998272
vn 0.000000 0.042577 0.999093
vn 0.000000 -0.058767 0.998272
vn 0.000000 0.042577 0.999093
vn 0.000000 -0.058767 0.998272
vn 0.000000 -0.058767 0.998272
vn 0.000000 0.042577 0.999093
vn 0.000000 0.042577 0.999093
vn 0.000000 0.000000 1.000000
vn 0.000000 0.000000 1.000000
vn 0.000000 0.000000 1.000000
vn 0.000000 0.000000 1.000000
vn 0.000000 0.000000 1.000000
vn 0.000000 0.000000 1.000000
vn 0.000000 0.000000 1.000000
vn 0.000000 0.000000 1.000000
vn 0.000000 0.000000 1.000000
vn 0.000000 0.000000 1.000000
vn 0.000000 0.000000 1.000000
vn 0.000000 -0.042577 0.999093
vn 0.000000 -0.042577 0.999093
vn 0.000000 -0.042577 0.999093
vn 0.000000 -0.042577 0.999093
vn 0.000000 -0.042577 0.999093
vn 0.000000 -0.042577 0.999093
vn 0.000000 -0.042577 0.999093
vn 0.000000 -0.042577 0.999093
vn 0.000000 -0.042577 0.999093
vn 0.000000 -0.042577 0.999093
vn 0.000000 -0.042577 0.999093
vn -0.000000 0.043732 0.999043
vn 0.000000 0.043733 0.999043
vn 0.000000 0.043732 0.999043
vn -0.000000 0.043732 0.999043
vn 0.000000 0.043732 0.999043
vn 0.000000 0.043732 0.999043
vn 0.000000 0.043732 0.999043
vn 0.000000 0.043732 0.999043
vn 0.000000 0.043732 0.999043
vn 0.000000 0.043732 0.999043
vn 0.000000 0.043732 0.999043
vn -0.000000 0.000000 1.000000
vn 0.000001 0.000000 1.000000
vn 0.000000 0.000000 1.000000
vn -0.000000 0.000000 1.000000
vn 0.000000 0.000000 1.000000
vn 0.000000 0.000000 1.000000
vn 0.000000 0.000000 1.000000
vn 0.000000 0.000000 1.000000
vn 0.000000 0.000000 1.000000
vn 0.000000 0.000000 1.000000
vn 0.000000 0.000000 1.000000
vn 0.000000 -0.043962 0.999033
vn 0.000000 -0.043963 0.999033
vn 0.000000 -0.043962 0.999033
vn -0.000000 -0.043962 0.999033
vn 0.000000 -0.043962 0.999033
vn 0.000000 -0.043962 0.999033
vn 0.000000 -0.043962 0.999033
vn 0.000000 -0.043962 0.999033
vn 0.000000 -0.043962 0.999033
vn 0.000000 -0.043962 0.999033
vn 0.000000 -0.043962 0.999033
vn 0.000000 0.000000 1.000000
vn 0.000000 0.000000 1.000000
vn 0.000000 0.000000 1.000000
vn 0.000000 0.000000 1.000000
vn 0.000000 0.000000 1.000000
vn 0.000000 0.000000 1.000000
vn 0.000000 0.000000 1.000000
vn 0.000000 0.000000 1.000000
vn 0.000000 0.000000 1.000000
vn 0.000000 0.000000 1.000000
vn 0.000000 0.000000 1.000000
vn 0.000000 0.000000 1.000000
vn 0.000000 0.000000 1.000000
vn 0.000000 0.000000 1.000000
vn 0.000000 0.000000 1.000000
vn 0.000000 0.000000 1.000000
vn -0.000000 0.000000 1.000000
vn -0.000000 0.000000 1.000000
vn -0.000000 0.000000 1.000000
vn 0.000000 0.000000 1.000000
vn 0.000000 0.000000 1.000000
vn -0.000000 0.000000 1.000000
vn 0.000000 1.000000 0.000000
vn 0.000000 1.000000 0.000000
vn 0.000000 1.000000 0.000000
vn 0.000000 1.000000 0.000000
vn 0.000000 1.000000 0.000000
vn 0.000000 1.000000 0.000000
vn 0.000000 1.000000 0.000000
vn 0.000000 1.000000 0.000000
vn 0.000000 1.000000 0.000000
vn 0.000000 1.000000 0.000000
vn 0.000000 1.000000 0.000000
vn 0.000000 1.000000 0.000000
vn 0.000000 1.000000 0.000000
vn 0.000000 1.000000 0.000000
vn 0.000000 1.000000 0.000000
vn 0.000000 1.000000 0.000000
vn 0.000000 1.000000 0.000000
vn 0.000000 1.000000 0.000000
vn 0.000000 1.000000 0.000000
vn 0.000000 1.000000 0.000000
vn 0.000000 1.000000 0.000000
vn 0.000000 1.000000 0.000000
vn 0.000000 0.000000 -1.000000
vn 0.000000 0.000000 -1.000000
vn 0.000000 0.000000 -1.000000
vn 0.000000 0.000000 -1.000000
vn 0.000000 0.000000 -1.000000
vn 0.000000 0.000000 -1.000000
vn 0.000000 0.000000 -1.000000
vn 0.000000 0.000000 -1.000000
vn 0.000000 0.000000 -1.000000
vn 0.000000 0.000000 -1.000000
vn 0.000000 0.000000 -1.000000
vn 0.000000 0.000000 -1.000000
vn 0.000000 0.000000 -1.000000
vn 0.000000 0.000000 -1.000000
vn 0.000000 0.000000 -1.000000
vn 0.000000 0.000000 -1.000000
vn 0.000000 0.000000 -1.000000
vn 0.000000 0.000000 -1.000000
vn 0.000000 0.000000 -1.000000
vn 0.000000 0.000000 -1.000000
vn 0.000000 0.000000 -1.000000
vn 0.000000 0.000000 -1.000000
vn 0.000000 0.043962 -0.999033
vn 0.000000 0.043962 -0.999033
vn 0.000000 -0.000000 -1.000000
vn 0.000000 0.000000 -1.000000
vn 0.000000 0.043962 -0.999033
vn 0.000000 0.043962 -0.999033
vn 0.000000 0.000000 -1.000000
vn 0.000000 -0.000000 -1.000000
vn 0.000000 0.043962 -0.999033
vn 0.000000 0.000000 -1.000000
vn 0.000000 0.043962 -0.999033
vn 0.000000 0.000000 -1.000000
vn 0.000000 0.043962 -0.999033
vn 0.000000 0.000000 -1.000000
vn 0.000000 0.043962 -0.999033
vn 0.000000 0.000000 -1.000000
vn 0.000000 0.043962 -0.999033
vn 0.000000 0.000000 -1.000000
vn 0.000000 0.043962 -0.999033
vn 0.000000 0.043962 -0.999033
vn 0.000000 -0.000000 -1.000000
vn 0.000000 0.000000 -1.000000
vn 0.000000 -0.043732 -0.999043
vn 0.000000 -0.043732 -0.999043
vn 0.000000 -0.043732 -0.999043
vn 0.000000 -0.043732 -0.999043
vn 0.000000 -0.043732 -0.999043
vn 0.000000 -0.043732 -0.999043
vn 0.000000 -0.043732 -0.999043
vn 0.000000 -0.043732 -0.999043
vn 0.000000 -0.043732 -0.999043
vn 0.000000 -0.043732 -0.999043
vn 0.000000 -0.043732 -0.999043
vn 0.000000 0.042577 -0.999093
vn 0.000000 0.042577 -0.999093
vn 0.000000 0.042577 -0.999093
vn 0.000000 0.042577 -0.999093
vn 0.000000 0.042577 -0.999093
vn 0.000000 0.042577 -0.999093
vn 0.000000 0.042577 -0.999093
vn 0.000000 0.042577 -0.999093
vn 0.000000 0.042577 -0.999093
vn 0.000000 0.042577 -0.999093
vn 0.000000 0.042577 -0.999093
vn 0.000000 0.000000 -1.000000
vn 0.000000 0.000000 -1.000000
vn 0.000000 0.000000 -1.000000
vn 0.000000 0.000000 -1.000000
vn 0.000000 0.000000 -1.000000
vn 0.000000 0.000000 -1.000000
vn 0.000000 0.000000 -1.000000
vn 0.000000 0.000000 -1.000000
vn 0.000000 -0.000000 -1.000000
vn 0.000000 0.000000 -1.000000
vn 0.000000 -0.000000 -1.000000
vn 0.000000 -0.042577 -0.999093
vn 0.000000 -0.042577 -0.999093
vn 0.000000 -0.042577 -0.999093
vn 0.000000 -0.042577 -0.999093
vn 0.000000 -0.042577 -0.999093
vn 0.000000 -0.042577 -0.999093
vn 0.000000 -0.042577 -0.999093
vn 0.000000 -0.042577 -0.999093
vn 0.000000 -0.042577 -0.999093
vn 0.000000 -0.042577 -0.999093
vn 0.000000 -0.042577 -0.999093
vn 0.000000 0.058767 -0.998272
vn 0.000000 0.058767 -0.998272
vn 0.000000 0.058767 -0.998272
vn 0.000000 0.058767 -0.998272
vn 0.000000 0.058767 -0.998272
vn 0.000000 0.058767 -0.998272
vn 0.000000 0.058767 -0.998272
vn 0.000000 0.058767 -0.998272
vn 0.000000 0.058767 -0.998272
vn 0.000000 0.058767 -0.998272
vn 0.000000 0.058767 -0.998272
vn 0.000000 0.118121 -0.992999
vn 0.000000 0.118122 -0.992999
vn 0.000000 0.118122 -0.992999
vn 0.000000 0.118121 -0.992999
vn 0.000000 0.118122 -0.992999
vn 0.000000 0.118122 -0.992999
vn 0.000000 0.118122 -0.992999
vn 0.000000 0.118122 -0.992999
vn 0.000000 0.118122 -0.992999
vn 0.000000 0.118122 -0.992999
vn 0.000000 0.118122 -0.992999
vn 0.000000 0.118122 -0.992999
vn 0.000000 0.118122 -0.992999
vn 0.000000 0.118122 -0.992999
vn 0.000000 0.118122 -0.992999
vn 0.000000 0.118122 -0.992999
vn 0.000000 0.118122 -0.992999
vn 0.000000 0.118122 -0.992999
vn 0.000000 0.118122 -0.992999
vn 0.000000 0.118121 -0.992999
vn 0.000000 0.118122 -0.992999
vn 0.000000 0.118122 -0.992999
vn 0.000000 -1.000000 0.000000
vn 0.000000 -1.000000 0.000000
vn 0.000000 -1.000000 0.000000
vn 0.000000 -1.000000 0.000000
vn 0.000000 -1.000000 0.000000
vn 0.000000 -1.000000 0.000000
vn 0.000000 -1.000000 0.000000
vn 0.000000 -1.000000 0.000000
vn 0.000000 -1.000000 0.000000
vn 0.000000 -1.000000 0.000000
vn 0.000000 -1.000000 0.000000
vn 0.000000 -1.000000 0.000000
vn 0.000000 -1.000000 0.000000
vn 0.000000 -1.000000 0.000000
vn 0.000000 -1.000000 0.000000
vn 0.000000 -1.000000 0.000000
vn 0.000000 -1.000000 0.000000
vn 0.000000 -1.000000 0.000000
vn 0.000000 -1.000000 0.000000
vn 0.000000 -1.000000 0.000000
vn 0.000000 -1.000000 0.000000
vn 0.000000 -1.000000 0.000000
vn 1.000000 0.000007 0.000000
vn 1.000000 0.000007 0.000000
vn 1.000000 0.000001 0.000000
vn 1.000000 0.000001 0.000000
vn 1.000000 0.000000 0.000000
vn 1.000000 0.000000 0.000000
vn 1.000000 0.000000 0.000000
vn 1.000000 0.000000 0.000000
vn 1.000000 0.000000 0.000000
vn 1.000000 0.000000 0.000000
vn 1.000000 0.000000 0.000000
vn 1.000000 0.000000 0.000000
vn 1.000000 0.000000 0.000000
vn 1.000000 0.000000 0.000000
vn 1.000000 0.000000 0.000000
vn 1.000000 0.000000 0.000000
vn 1.000000 0.000000 0.000000
vn 1.000000 0.000000 0.000000
vn 1.000000 0.000000 0.000000
vn 1.000000 0.000000 0.000000
vn 1.000000 0.000000 0.000000
vn 1.000000 0.000000 0.000000
vn -1.000000 0.000002 0.000000
vn -1.000000 0.000002 0.000000
vn -1.000000 0.000000 0.000000
vn -1.000000 0.000000 0.000000
vn -1.000000 -0.000000 0.000000
vn -1.000000 -0.000000 0.000000
vn -1.000000 -0.000000 0.000000
vn -1.000000 -0.000000 0.000000
vn -1.000000 0.000000 0.000000
vn -1.000000 0.000000 0.000000
vn -1.000000 0.000000 0.000000
vn -1.000000 0.000000 0.000000
vn -1.000000 0.000000 0.000000
vn -1.000000 0.000000 0.000000
vn -1.000000 0.000000 0.000000
vn -1.000000 0.000000 0.000000
vn -1.000000 0.000000 0.000000
vn -1.000000 0.000000 0.000000
vn -1.000000 0.000000 0.000000
vn -1.000000 0.000000 0.000000
vn -1.000000 0.000000 0.000000
vn -1.000000 0.000000 0.000000
s 1
g Paper
usemtl initialShadingGroup
f 1/1/1 163/190/2 200/230/3 181/209/4
f 2/2/5 3/3/6 198/228/7 199/229/8
f 3/3/6 4/4/9 197/227/10 198/228/7
f 4/4/9 5/5/11 196/226/12 197/227/10
f 5/5/11 6/6/13 195/225/14 196/226/12
f 6/6/13 7/7/15 194/224/16 195/225/14
f 7/7/15 8/8/17 193/223/18 194/224/16
f 202/232/19 9/9/20 192/222/21 201/231/22
f 10/10/23 164/192/24 165/193/25 19/19/26
f 11/11/27 12/12/28 21/21/29 20/20/30
f 12/12/28 13/13/31 22/22/32 21/21/29
f 13/13/31 14/14/33 23/23/34 22/22/32
f 14/14/33 15/15/35 24/24/36 23/23/34
f 15/15/35 16/16/37 25/25/38 24/24/36
f 16/16/37 17/17/39 26/26/40 25/25/38
f 220/251/41 18/18/42 27/27/43 219/250/44
f 19/19/26 165/193/25 166/194/45 28/28/46
f 20/20/30 21/21/29 30/30/47 29/29/48
f 21/21/29 22/22/32 31/31/49 30/30/47
f 22/22/32 23/23/34 32/32/50 31/31/49
f 23/23/34 24/24/36 33/33/51 32/32/50
f 24/24/36 25/25/38 34/34/52 33/33/51
f 25/25/38 26/26/40 35/35/53 34/34/52
f 219/250/44 27/27/43 36/36/54 218/249/55
f 28/28/46 166/194/45 167/195/56 37/37/57
f 29/29/48 30/30/47 39/39/58 38/38/59
f 30/30/47 31/31/49 40/40/60 39/39/58
f 31/31/49 32/32/50 41/41/61 40/40/60
f 32/32/50 33/33/51 42/42/62 41/41/61
f 33/33/51 34/34/52 43/43/63 42/42/62
f 34/34/52 35/35/53 44/44/64 43/43/63
f 218/249/55 36/36/54 45/45/65 217/248/66
f 37/37/57 167/195/56 168/196/67 46/46/68
f 38/38/59 39/39/58 48/48/69 47/47/70
f 39/39/58 40/40/60 49/49/71 48/48/69
f 40/40/60 41/41/61 50/50/72 49/49/71
f 41/41/61 42/42/62 51/51/73 50/50/72
f 42/42/62 43/43/63 52/52/74 51/51/73
f 43/43/63 44/44/64 53/53/75 52/52/74
f 217/248/66 45/45/65 54/54/76 216/247/77
f 46/46/68 168/196/67 169/197/78 55/55/79
f 47/47/70 48/48/69 57/57/80 56/56/81
f 48/48/69 49/49/71 58/58/82 57/57/80
f 49/49/71 50/50/72 59/59/83 58/58/82
f 50/50/72 51/51/73 60/60/84 59/59/83
f 51/51/73 52/52/74 61/61/85 60/60/84
f 52/52/74 53/53/75 62/62/86 61/61/85
f 216/247/77 54/54/76 63/63/87 215/246/88
f 55/55/79 169/197/78 170/198/89 64/64/90
f 56/56/81 57/57/80 66/66/91 65/65/92
f 57/57/80 58/58/82 67/67/93 66/66/91
f 58/58/82 59/59/83 68/68/94 67/67/93
f 59/59/83 60/60/84 69/69/95 68/68/94
f 60/60/84 61/61/85 70/70/96 69/69/95
f 61/61/85 62/62/86 71/71/97 70/70/96
f 215/246/88 63/63/87 72/72/98 214/245/99
f 234/267/100 235/268/101 171/199/102 73/73/103
f 236/269/104 237/270/105 75/75/106 74/74/107
f 237/270/105 238/271/108 76/76/109 75/75/106
f 238/271/108 239/272/110 77/77/111 76/76/109
f 239/272/110 240/273/112 78/78/113 77/77/111
f 240/273/112 241/274/114 79/79/115 78/78/113
f 241/274/114 242/275/116 80/80/117 79/79/115
f 221/252/118 222/253/119 81/81/120 213/244/121
s 4
f 73/73/122 171/199/123 172/200/124 82/82/125
f 74/74/126 75/75/127 84/84/128 83/83/129
f 75/75/127 76/76/130 85/85/131 84/84/128
f 76/76/130 77/77/132 86/86/133 85/85/131
f 77/77/132 78/78/134 87/87/135 86/86/133
f 78/78/134 79/79/136 88/88/137 87/87/135
f 79/79/136 80/80/138 89/89/139 88/88/137
f 213/244/140 81/81/141 90/90/142 212/243/143
s 6
f 82/82/144 172/200/145 232/264/146 233/266/147
f 83/83/148 84/84/149 230/262/150 231/263/151
f 84/84/149 85/85/152 229/261/153 230/262/150
f 85/85/152 86/86/154 228/260/155 229/261/153
f 86/86/154 87/87/156 227/259/157 228/260/155
f 87/87/156 88/88/158 226/258/159 227/259/157
f 88/88/158 89/89/160 225/257/161 226/258/159
f 212/243/162 90/90/163 223/254/164 224/256/165
f 91/91/166 173/201/167 174/202/168 100/100/169
f 92/92/170 93/93/171 102/102/172 101/101/173
f 93/93/171 94/94/174 103/103/175 102/102/172
f 94/94/174 95/95/176 104/104/177 103/103/175
f 95/95/176 96/96/178 105/105/179 104/104/177
f 96/96/178 97/97/180 106/106/181 105/105/179
f 97/97/180 98/98/182 107/107/183 106/106/181
f 211/242/184 99/99/185 108/108/186 210/241/187
f 100/100/169 174/202/168 175/203/188 109/109/189
f 101/101/173 102/102/172 111/111/190 110/110/191
f 102/102/172 103/103/175 112/112/192 111/111/190
f 103/103/175 104/104/177 113/113/193 112/112/192
f 104/104/177 105/105/179 114/114/194 113/113/193
f 105/105/179 106/106/181 115/115/195 114/114/194
f 106/106/181 107/107/183 116/116/196 115/115/195
f 210/241/187 108/108/186 117/117/197 209/240/198
f 109/109/189 175/203/188 176/204/199 118/118/200
f 110/110/191 111/111/190 120/120/201 119/119/202
f 111/111/190 112/112/192 121/121/203 120/120/201
f 112/112/192 113/113/193 122/122/204 121/121/203
f 113/113/193 114/114/194 123/123/205 122/122/204
f 114/114/194 115/115/195 124/124/206 123/123/205
f 115/115/195 116/116/196 125/125/207 124/124/206
f 209/240/198 117/117/197 126/126/208 208/239/209
f 118/118/200 176/204/199 177/205/210 127/127/211
f 119/119/202 120/120/201 129/129/212 128/128/213
f 120/120/201 121/121/203 130/130/214 129/129/212
f 121/121/203 122/122/204 131/131/215 130/130/214
f 122/122/204 123/123/205 132/132/216 131/131/215
f 123/123/205 124/124/206 133/133/217 132/132/216
f 124/124/206 125/125/207 134/134/218 133/133/217
f 208/239/209 126/126/208 135/135/219 207/238/220
f 127/127/211 177/205/210 178/206/221 136/136/222
f 128/128/213 129/129/212 138/138/223 137/137/224
f 129/129/212 130/130/214 139/139/225 138/138/223
f 130/130/214 131/131/215 140/140/226 139/139/225
f 131/131/215 132/132/216 141/141/227 140/140/226
f 132/132/216 133/133/217 142/142/228 141/141/227
f 133/133/217 134/134/218 143/143/229 142/142/228
f 207/238/220 135/135/219 144/144/230 206/237/231
f 136/136/222 178/206/221 179/207/232 145/145/233
f 137/137/224 138/138/223 147/147/234 146/146/235
f 138/138/223 139/139/225 148/148/236 147/147/234
f 139/139/225 140/140/226 149/149/237 148/148/236
f 140/140/226 141/141/227 150/150/238 149/149/237
f 141/141/227 142/142/228 151/151/239 150/150/238
f 142/142/228 143/143/229 152/152/240 151/151/239
f 206/237/231 144/144/230 153/153/241 205/236/242
f 182/211/243 183/212/244 180/208/245 154/154/246
f 184/213/247 185/214/248 156/156/249 155/155/250
f 185/214/248 186/215/251 157/157/252 156/156/249
f 186/215/251 187/216/253 158/158/254 157/157/252
f 187/216/253 188/217/255 159/159/256 158/158/254
f 188/217/255 189/218/257 160/160/258 159/159/256
f 189/218/257 190/219/259 161/161/260 160/160/258
f 204/235/261 191/220/262 162/162/263 203/234/264
s 9
f 154/154/265 180/208/266 163/191/267 1/163/268
f 155/155/269 156/156/270 3/165/271 2/164/272
f 156/156/270 157/157/273 4/166/274 3/165/271
f 157/157/273 158/158/275 5/167/276 4/166/274
f 158/158/275 159/159/277 6/168/278 5/167/276
f 159/159/277 160/160/279 7/169/280 6/168/278
f 160/160/279 161/161/281 8/170/282 7/169/280
f 203/234/283 162/162/284 9/171/285 202/233/286
s 11
f 9/9/287 162/172/288 191/221/289 192/222/290
f 18/18/291 153/173/292 144/174/293 27/27/294
f 27/27/294 144/174/293 135/175/295 36/36/296
f 36/36/296 135/175/295 126/176/297 45/45/298
f 45/45/298 126/176/297 117/177/299 54/54/300
f 54/54/300 117/177/299 108/178/301 63/63/302
f 63/63/302 108/178/301 99/179/303 72/72/304
f 222/253/305 223/255/306 90/180/307 81/81/308
s 12
f 154/181/309 1/1/310 181/209/311 182/210/312
f 145/182/313 10/10/314 19/19/315 136/183/316
f 136/183/316 19/19/315 28/28/317 127/184/318
f 127/184/318 28/28/317 37/37/319 118/185/320
f 118/185/320 37/37/319 46/46/321 109/186/322
f 109/186/322 46/46/321 55/55/323 100/187/324
f 100/187/324 55/55/323 64/64/325 91/188/326
f 233/265/327 234/267/328 73/73/329 82/189/330
s 1
f 163/190/2 2/2/5 199/229/8 200/230/3
f 165/193/25 164/192/24 11/11/27 20/20/30
f 166/194/45 165/193/25 20/20/30 29/29/48
f 167/195/56 166/194/45 29/29/48 38/38/59
f 168/196/67 167/195/56 38/38/59 47/47/70
f 169/197/78 168/196/67 47/47/70 56/56/81
f 170/198/89 169/197/78 56/56/81 65/65/92
f 171/199/102 235/268/101 236/269/104 74/74/107
s 4
f 172/200/124 171/199/123 74/74/126 83/83/129
s 6
f 232/264/146 172/200/145 83/83/148 231/263/151
f 174/202/168 173/201/167 92/92/170 101/101/173
f 175/203/188 174/202/168 101/101/173 110/110/191
f 176/204/199 175/203/188 110/110/191 119/119/202
f 177/205/210 176/204/199 119/119/202 128/128/213
f 178/206/221 177/205/210 128/128/213 137/137/224
f 179/207/232 178/206/221 137/137/224 146/146/235
f 180/208/245 183/212/244 184/213/247 155/155/250
s 9
f 163/191/267 180/208/266 155/155/269 2/164/272
s 12
f 182/210/312 181/209/311 10/10/314 145/182/313
s 6
f 145/145/233 179/207/232 183/212/244 182/211/243
f 184/213/247 183/212/244 179/207/232 146/146/235
f 146/146/235 147/147/234 185/214/248 184/213/247
f 147/147/234 148/148/236 186/215/251 185/214/248
f 148/148/236 149/149/237 187/216/253 186/215/251
f 149/149/237 150/150/238 188/217/255 187/216/253
f 150/150/238 151/151/239 189/218/257 188/217/255
f 151/151/239 152/152/240 190/219/259 189/218/257
f 205/236/242 153/153/241 191/220/262 204/235/261
s 11
f 192/222/290 191/221/289 153/173/292 18/18/291
s 1
f 220/251/41 201/231/22 192/222/21 18/18/42
f 194/224/16 193/223/18 17/17/39 16/16/37
f 195/225/14 194/224/16 16/16/37 15/15/35
f 196/226/12 195/225/14 15/15/35 14/14/33
f 197/227/10 196/226/12 14/14/33 13/13/31
f 198/228/7 197/227/10 13/13/31 12/12/28
f 199/229/8 198/228/7 12/12/28 11/11/27
f 200/230/3 199/229/8 11/11/27 164/192/24
f 181/209/4 200/230/3 164/192/24 10/10/23
f 8/8/17 202/232/19 201/231/22 193/223/18
s 9
f 161/161/281 203/234/283 202/233/286 8/170/282
s 6
f 190/219/259 204/235/261 203/234/264 161/161/260
f 152/152/240 205/236/242 204/235/261 190/219/259
f 143/143/229 206/237/231 205/236/242 152/152/240
f 134/134/218 207/238/220 206/237/231 143/143/229
f 125/125/207 208/239/209 207/238/220 134/134/218
f 116/116/196 209/240/198 208/239/209 125/125/207
f 107/107/183 210/241/187 209/240/198 116/116/196
f 98/98/182 211/242/184 210/241/187 107/107/183
f 89/89/160 212/243/162 224/256/165 225/257/161
s 4
f 80/80/138 213/244/140 212/243/143 89/89/139
s 1
f 242/275/116 221/252/118 213/244/121 80/80/117
f 62/62/86 215/246/88 214/245/99 71/71/97
f 53/53/75 216/247/77 215/246/88 62/62/86
f 44/44/64 217/248/66 216/247/77 53/53/75
f 35/35/53 218/249/55 217/248/66 44/44/64
f 26/26/40 219/250/44 218/249/55 35/35/53
f 17/17/39 220/251/41 219/250/44 26/26/40
f 193/223/18 201/231/22 220/251/41 17/17/39
f 214/245/99 72/72/98 222/253/119 221/252/118
s 11
f 72/72/304 99/179/303 223/255/306 222/253/305
s 6
f 224/256/165 223/254/164 99/99/185 211/242/184
f 225/257/161 224/256/165 211/242/184 98/98/182
f 226/258/159 225/257/161 98/98/182 97/97/180
f 227/259/157 226/258/159 97/97/180 96/96/178
f 228/260/155 227/259/157 96/96/178 95/95/176
f 229/261/153 228/260/155 95/95/176 94/94/174
f 230/262/150 229/261/153 94/94/174 93/93/171
f 231/263/151 230/262/150 93/93/171 92/92/170
f 173/201/167 232/264/146 231/263/151 92/92/170
f 233/266/147 232/264/146 173/201/167 91/91/166
s 12
f 91/188/326 64/64/325 234/267/328 233/265/327
s 1
f 64/64/90 170/198/89 235/268/101 234/267/100
f 236/269/104 235/268/101 170/198/89 65/65/92
f 65/65/92 66/66/91 237/270/105 236/269/104
f 66/66/91 67/67/93 238/271/108 237/270/105
f 67/67/93 68/68/94 239/272/110 238/271/108
f 68/68/94 69/69/95 240/273/112 239/272/110
f 69/69/95 70/70/96 241/274/114 240/273/112
f 70/70/96 71/71/97 242/275/116 241/274/114
f 71/71/97 214/245/99 221/252/118 242/275/116
